<?xml version="1.0" encoding="UTF-8"?>
<svg id="Lager_1" data-name="Lager 1" xmlns="http://www.w3.org/2000/svg" viewBox="0 0 519.34 519.34">
  <g>
    <path d="M341.52,424.84c-20.19-.06-35.44-4.03-49.24-12.86-13.13-8.41-21.56-20.14-24.45-35.66-2.21-11.91-.6-23.28,4.77-34.08,2.62-5.27,5.63-10.35,8.45-15.53,2.64-4.84,4.39-9.97,5.07-15.46.91-7.32-.04-14.42-3.02-21.14-5.68-12.8-21.86-19.37-34.43-12.69-5.61,2.98-10.31,7.22-12.68,13.24-4.67,11.86-4.09,23.51,1.7,34.83,2.48,4.86,5.33,9.52,7.89,14.34,4.37,8.22,7,16.95,6.87,26.34-.27,18.79-8.02,33.72-23.44,44.51-9.82,6.87-20.8,11.06-32.59,12.94-25.81,4.11-48.9-2.28-69.29-18.53-2.13-1.69-4.15-3.57-5.97-5.59-11.96-13.16-20.16-28.42-24.85-45.55-.66-2.39-.98-4.96-.93-7.43.11-5.97,3.64-10.15,9.52-11.18,2.76-.48,5.64-.35,8.46-.3,2.5.05,5,.46,7.51.54,1.4.05,2.88,0,4.21-.41,2.91-.88,3.75-3.4,2.03-5.89-1.17-1.71-2.58-3.25-3.8-4.93-3.22-4.43-5.26-9.29-5.29-14.86-.05-9.4,5.94-16.44,15.29-17.29,4.64-.42,9.36.13,14.04.16,2.28.02,4.62.13,6.84-.28,5.51-1.01,7.56-4.17,8.46-9.46.18-1.08-.22-2.43-.79-3.41-.86-1.5-1.93-2.95-3.19-4.12-7.02-6.56-15.12-10.66-24.99-10.52-3.27.05-6.55.02-9.83.05-7.36.07-13.23,2.98-17.63,8.98-9.19,12.52-26.77,13.09-36.4,1.2-4.69-5.78-6.06-12.49-4.84-19.73,1.5-8.94,6.52-15.23,15.05-18.22,8.54-3,16.36-1.15,23.12,4.87,1.29,1.15,2.35,2.58,3.4,3.97,4.17,5.5,9.7,8.43,16.56,8.42,5.99,0,12.05.14,17.94-.74,7.69-1.15,13.98-5.48,19.09-11.26,4.29-4.85,2.52-11.75-3.59-14.03-2.38-.88-5.12-1-7.7-1.06-2.94-.07-5.88.44-8.82.48-2.61.04-5.26.04-7.82-.39-10.23-1.7-16.11-10.99-13.77-21.53.94-4.23,2.83-8.01,5.51-11.4,1.08-1.37,2.24-2.69,3.21-4.14,1.57-2.34.97-4.48-1.62-5.57-1.07-.45-2.33-.65-3.5-.63-2.61.05-5.22.42-7.84.46-3.15.05-6.36.27-9.43-.27-5.9-1.03-9.45-5.27-9.39-11.25.03-3.23.56-6.56,1.51-9.65,4.67-15.32,11.9-29.37,22.59-41.35,12.92-14.47,29.44-22.88,48.37-26.04,19.06-3.18,37.41-.28,54.57,8.94,10.76,5.78,19.5,13.72,24.71,24.92,7.05,15.19,7.32,30.64.36,45.95-2.48,5.45-5.6,10.61-8.51,15.86-3,5.4-5.15,11.08-5.82,17.25-.79,7.32.19,14.42,3.29,21.09,3.48,7.51,9.6,12.21,17.44,14.19,11.97,3.03,24.63-3.56,29.37-15.06,4.86-11.79,4.21-23.48-1.54-34.83-2.32-4.57-4.99-8.97-7.44-13.47-3.42-6.28-6.03-12.87-6.84-20.02-2.31-20.49,4.26-37.45,20.66-50.18,10.39-8.07,22.39-12.69,35.31-14.67,26.08-4,49.31,2.66,69.69,19.35,1.77,1.45,3.45,3.04,4.99,4.73,11.99,13.15,20.17,28.41,24.91,45.52.66,2.39.99,4.95.97,7.43-.04,5.99-3.48,10.23-9.38,11.28-3.07.54-6.28.32-9.43.28-2.61-.04-5.22-.41-7.84-.46-1.17-.02-2.43.17-3.5.61-2.6,1.08-3.24,3.23-1.67,5.55,1.16,1.71,2.57,3.26,3.8,4.93,3.45,4.7,5.54,9.88,5.37,15.82-.26,8.67-5.89,15.16-14.48,16.4-2.78.4-5.65.31-8.48.29-4.14-.02-8.3-.45-12.41-.2-4.43.27-7.41,2.83-8.89,7.09-.7,2.01-.6,3.87.58,5.63.73,1.09,1.44,2.22,2.37,3.12,6.8,6.6,14.63,11.01,24.39,11.11,4.04.04,8.08.06,12.12-.06,6.73-.2,12.26-2.94,16.22-8.43,3.98-5.51,9.16-9.04,15.91-9.92,13.76-1.79,25.44,8.15,26.08,22.18.43,9.49-3.14,17.13-11.31,22.17-10.05,6.21-23.09,3.39-30.25-6.5-3.4-4.7-7.88-7.4-13.4-8.66-.43-.1-.85-.25-1.28-.25-6.65-.01-13.34-.76-19.92.57-7.76,1.57-14.2,5.6-19.38,11.47-4.51,5.12-2.46,12.62,4.08,14.74,2.62.85,5.57.84,8.38.87,4.47.04,8.96-.61,13.39-.27,11.7.88,18.46,10.42,15.85,21.91-.91,4-2.68,7.6-5.18,10.85-1.13,1.47-2.37,2.87-3.42,4.39-1.72,2.51-.93,5.02,1.96,5.92,1.32.41,2.81.47,4.21.43,2.51-.08,5-.49,7.51-.54,2.82-.06,5.7-.19,8.46.29,6.03,1.05,9.59,5.34,9.57,11.46-.01,2.69-.43,5.47-1.17,8.06-4.81,16.85-12.59,32.23-24.87,44.79-16.42,16.79-36.85,24.8-56.42,25.2ZM154.43,259.43c1.3.86,2.21,1.45,3.1,2.07,4.51,3.14,8.6,6.71,11.57,11.43,6.11,9.7,3.51,25.41-12.46,29.03-4.22.96-8.46.65-12.71.37-2.83-.19-5.68-.48-8.49-.27-5.75.43-8.26,4.08-7.04,9.71.67,3.08,2.27,5.64,4.17,8.07,1.34,1.72,2.77,3.4,3.87,5.27,2.82,4.82,2.48,9.59-.67,14.16-2.14,3.1-5.07,5.28-8.76,5.83-3.3.49-6.71.4-10.07.38-2.94-.01-5.88-.42-8.82-.4-2.23.02-2.65.6-2.53,2.84.07,1.3.28,2.61.62,3.87,3.39,12.6,9.33,23.95,17,34.44,4.89,6.69,10.92,12.15,17.96,16.54,16,9.97,33.32,13.83,52,11.12,11.18-1.62,21.61-5.37,30.81-12.02,13.53-9.77,19.34-23.2,18.17-39.74-.45-6.43-2.63-12.36-5.66-17.98-2.54-4.7-5.28-9.3-7.74-14.05-6.41-12.41-7.55-25.37-3.7-38.77,5.73-19.98,29.12-32.28,48.3-23.46,7.69,3.53,14.31,8.41,18.17,16.26,4.62,9.4,5.94,19.35,4.5,29.65-.96,6.89-3.51,13.25-6.88,19.32-2.97,5.34-6.08,10.63-8.56,16.19-7.03,15.71-4.22,38.19,13.4,51.44,3.12,2.35,6.51,4.43,10,6.18,13.77,6.89,28.41,9.23,43.59,7.08,18.49-2.61,34.33-10.59,46.46-25.04,8.3-9.88,14.06-21.27,18.18-33.48.73-2.16,1.22-4.42,1.54-6.68.45-3.16-.09-3.79-3.2-3.77-2.83.02-5.66.49-8.49.5-3.36,0-6.83.2-10.06-.53-8.34-1.9-14.98-12.14-7.93-21.65,1.1-1.49,2.45-2.83,3.4-4.4,1.28-2.13,2.65-4.32,3.34-6.67,1.78-6.01-1.03-9.93-7.26-10.27-2.71-.15-5.45.13-8.17.32-5.02.36-10.04.67-14.91-1.02-6.92-2.4-11.57-6.97-12.86-14.34-.96-5.49.19-10.63,3.47-15.24,3.15-4.44,7.22-7.86,11.7-10.84.66-.44,1.25-.98,2.04-1.61-1.2-.8-2.11-1.38-3-2-4.14-2.89-7.97-6.13-10.83-10.35-8.16-12.07-2.19-26.82,12.12-29.45,3.91-.72,8.02-.36,12.04-.38,3.05-.01,6.12.43,9.15.19,5.35-.43,7.85-4.06,6.79-9.35-.61-3.08-2.13-5.69-4.05-8.12-1.35-1.71-2.78-3.39-3.91-5.25-3.09-5.08-2.63-10.59,1.1-15.24,2.13-2.65,4.85-4.55,8.18-5.06,3.09-.47,6.28-.45,9.42-.42,3.16.03,6.31.46,9.47.45,2.23-.01,2.66-.63,2.53-2.85-.07-1.3-.28-2.61-.62-3.87-3.4-12.6-9.34-23.95-17-34.44-4.89-6.69-10.92-12.16-17.96-16.53-15.8-9.82-32.89-13.76-51.36-11.2-11.53,1.6-22.27,5.4-31.72,12.31-13.26,9.69-18.98,22.95-17.93,39.22.42,6.55,2.61,12.58,5.7,18.3,2.75,5.09,5.78,10.04,8.3,15.24,6.81,14.04,7.14,28.38,1.19,42.8-2.21,5.36-5.73,9.73-10.46,13.16-8.78,6.37-20.02,9.96-30.85,7.03-9.74-2.63-18.93-9.3-23.36-18.51-4.49-9.33-5.78-19.17-4.35-29.36.94-6.67,3.33-12.85,6.58-18.74,3.06-5.54,6.3-11.01,8.87-16.77,7.14-16.02,3.95-38.23-13.14-51.23-3.11-2.36-6.47-4.49-9.96-6.24-13.64-6.86-28.14-9.32-43.24-7.3-18.76,2.51-34.81,10.5-47.1,25.12-8.38,9.97-14.16,21.46-18.29,33.79-.59,1.75-1.04,3.57-1.34,5.39-.69,4.21-.09,4.92,4.09,4.77,2.72-.1,5.44-.37,8.16-.63,4.19-.41,8.3-.27,12.17,1.61,7.96,3.87,10.43,12.81,5.53,20.13-1.09,1.63-2.56,3.01-3.56,4.69-1.38,2.32-2.88,4.69-3.61,7.25-1.66,5.85,1.22,9.65,7.33,9.93,2.93.13,5.89-.13,8.82-.35,4.48-.34,8.93-.47,13.32.78,12.88,3.68,18.02,17.07,10.89,28.4-2.91,4.62-6.97,8.07-11.39,11.15-.88.61-1.77,1.2-3.07,2.08ZM87.49,271.15c6.69.02,12.53-5.35,12.62-11.61.09-6.2-5.71-11.79-12.36-11.91-6.71-.12-12.83,5.53-12.81,11.82.02,6.2,5.9,11.68,12.55,11.7ZM431.89,271.15c6.66-.03,12.52-5.51,12.53-11.72.02-6.17-5.88-11.74-12.49-11.8-6.76-.06-12.76,5.59-12.67,11.92.09,6.27,5.93,11.63,12.62,11.6Z"/>
    <path d="M373,374.68c.03,4.42-3.42,7.89-7.86,7.9-4.47,0-8.12-3.56-8.23-8.05-.1-4.3,3.45-7.85,7.9-7.89,4.45-.05,8.15,3.6,8.18,8.05Z"/>
    <path d="M154.08,382.58c-4.41-.07-7.83-3.63-7.72-8.04.1-4.44,3.87-8.02,8.33-7.9,4.31.11,7.76,3.53,7.78,7.7.02,4.59-3.78,8.32-8.38,8.24Z"/>
    <path d="M365.06,152.8c-4.42.08-8.1-3.38-8.15-7.67-.05-4.44,3.56-8.2,7.99-8.32,4.41-.11,8.01,3.29,8.1,7.68.09,4.45-3.51,8.23-7.94,8.31Z"/>
    <path d="M154.35,152.81c-4.42-.06-8.07-3.83-8-8.26.07-4.37,3.66-7.81,8.06-7.72,4.42.09,8.06,3.83,8.04,8.27-.02,4.28-3.69,7.78-8.11,7.72Z"/>
  </g>
  <path d="M259.67,519.34c-69.36,0-134.57-27.01-183.61-76.05S0,329.03,0,259.67,27.01,125.1,76.06,76.06,190.31,0,259.67,0s134.57,27.01,183.61,76.06,76.05,114.25,76.05,183.61-27.01,134.57-76.05,183.61-114.25,76.05-183.61,76.05ZM259.67,11C122.55,11,11,122.55,11,259.67s111.55,248.67,248.67,248.67,248.67-111.55,248.67-248.67S396.79,11,259.67,11Z"/>
</svg>